EMG
version=1
nRows=27
nColumns=17
inDegrees=no
endheader
time	EMG01_right_gast_med	EMG02_right_glut_max	EMG03_left_gast_med	EMG04_left_glut_max	EMG05_right_glut_med	EMG06_right_bic_fem	EMG07_right_rect_fem	EMG08_right_vast_lat	EMG09_right_vast_med	EMG10_right_tens_fasc_lat	EMG11_left_glut_med	EMG12_left_bic_fem	EMG13_left_rect_fem	EMG14_left_vast_lat	EMG15_left_vast_med	EMG16_left_tens_fasc_lat
      0.00000000	      6.98437309	     50.99256134	     59.02317810	      4.95285797	    -17.46971321	    -69.32889557	     -8.94040871	     14.18045425	    137.93908691	     -6.99849892	     -8.57430649	    -12.86539650	      5.40331650	     -1.38024521	    -39.32899857	    -70.23545837
      0.01000000	    -20.65540695	     22.73115921	   -106.09499359	    -12.68858719	    329.45779419	     44.16680527	    -12.33451557	    -29.45549774	    -35.75382996	    -10.52177143	      1.79477990	      6.78142023	     -7.97133064	      9.01558208	     -8.94310379	    -86.30419922
      0.02000000	    -56.30653381	      1.72885370	   -244.76896667	    -19.03259087	    126.71907806	    227.63583374	     26.38965225	     34.12925720	    -68.36963654	    -25.51657486	     -4.45246696	     -7.29380226	      1.77079892	      1.74029326	     16.34901619	    -68.01985168
      0.03000000	    -61.04003143	    -16.80826759	    -90.71359253	    -21.56272888	   -147.08354187	    -65.93508148	     32.14033508	    -49.29606628	   -230.38401794	   -148.87237549	     -9.55729103	     -7.77718449	     -5.11492252	     -1.25935507	     44.02334595	    -76.44087982
      0.04000000	     42.11452103	    -84.48404694	     -4.83457088	     -7.48935270	   -162.14321899	    -46.03705215	      6.08178759	     -4.03008032	   -137.09587097	   -176.33502197	     -0.70319605	     -7.95182610	     -6.36161804	     -4.44268608	     30.73471642	    -73.10638428
      0.05000000	     52.46675110	     15.61127853	     -0.50558925	     -0.60358936	   -196.73895264	    -91.06309509	     -4.63556910	      5.23542595	   -129.41140747	     -2.51455331	     -0.70195550	      8.25308037	     -3.11850858	     -5.23615789	     10.27067947	    -72.81620789
      0.06000000	      1.83924150	     66.59963989	      1.85175407	      2.22735286	    -96.99922180	    249.79080200	     23.84130096	      3.83279252	    -44.17842865	     44.70405197	    -10.58170128	     -5.92852402	      5.54556465	     -5.44927311	     16.00387001	    -90.46449280
      0.07000000	     -0.46868113	     31.77245331	     -3.69938922	    -20.43675423	    -10.91177559	    -11.52933788	      5.87902641	      7.43705463	     17.18589592	     18.55118942	     -1.07990098	     -5.37796068	     10.87754440	      3.65508413	      4.62109900	    -89.49842834
      0.08000000	    -30.40765762	    -11.42726898	     -2.55674839	    -22.08382607	   -136.46141052	    133.57783508	    -15.33845425	     10.54555893	    176.54318237	    -53.24986267	     -2.16830254	     -2.33272552	      1.38524532	     -1.72231674	     40.69427109	    -76.89569855
      0.09000000	    -34.02600098	    -11.78826618	    -14.26306820	    -16.81280899	     66.96704102	     71.92260742	    -22.23475266	     10.12807465	    238.20158386	    -16.21452522	      2.19902086	     -2.01660705	      3.11108971	      3.22537088	     48.47312546	    -85.76197052
      0.10000000	    -20.40661240	    -31.05804443	     -7.06592083	     -1.40418267	    291.73504639	    -30.46156311	    -19.11090469	     12.10806942	    161.01809692	     65.26063538	     10.97379875	     -4.71016836	     -2.97737932	     10.38642025	     45.09172440	    -64.84093475
      0.11000000	     10.20365143	    -35.82003021	      6.29620552	     21.17251015	    258.58224487	    -95.68910980	    -15.85552311	     11.09742928	     31.09445190	    113.34503174	      0.04045631	     -5.52696419	     -6.44115543	     16.35906410	     53.20560074	    -46.40206909
      0.12000000	     18.32680321	    -20.45781898	     13.17806625	     -8.76570511	    128.99227905	     13.31458855	    -12.09171295	     -4.46257210	     -6.96764374	     49.48197937	      1.17355728	    -15.49083138	    -14.82227898	     28.31540108	     18.70496750	    -50.78237915
      0.13000000	     18.23028183	     11.99496555	     -7.91414642	     35.90132523	     92.05780792	    -83.52115631	      9.01231384	    -33.06116867	    -89.21442413	      0.68030524	     -0.01287186	    -22.85751915	     -7.50808954	     14.69588089	     26.52583313	    -71.32698822
      0.14000000	     12.14065170	     -5.63227606	     -8.77052212	    137.26210022	    -54.00180435	     12.90226364	     27.39859390	    -32.55526733	   -241.57173157	    -41.29047775	      0.50644982	    -17.17139435	     -6.03801775	    -18.50465965	     44.82573700	    -96.21825409
      0.15000000	     14.78225136	     -3.72559500	     -3.70677638	    237.46220398	    -38.49228287	    -26.71858597	     14.94789314	    -21.57580376	   -228.52890015	    -53.16895676	      5.80282593	     -1.17572856	     -2.52437401	    -40.31837463	     40.65933990	   -138.89697266
      0.16000000	    -13.33019733	      6.85146904	      4.20440149	    280.62387085	     -7.96126318	    -22.63929749	     28.11885643	    -14.39058399	   -128.02784729	      0.90304756	      5.84238291	     -2.47236133	     -1.34256315	    -21.47080994	    -12.01893044	    -25.40306473
      0.17000000	    -13.55411053	    -25.22675705	     21.43778038	    519.81707764	    -45.72531128	    -18.75242424	      9.09096909	    -12.07073879	      5.29931021	     77.74361420	     -5.64113283	      1.63503194	      0.49051404	     -4.36540174	    -82.79472351	     63.35955811
      0.18000000	    -29.86479187	    -13.29263496	      8.75060368	    476.84912109	    135.71331787	    -10.42403603	      4.29664421	     -0.22188650	     50.34850693	    109.35942078	     -4.80788803	     -2.54600406	      2.76321650	      7.28793621	    -89.66159058	   -161.36816406
      0.19000000	     91.67745972	     38.90880203	     -0.47909048	    198.55603027	     36.09479904	      0.38944471	     -4.66574907	     -2.55611992	     97.60294342	     59.75827026	     -1.95769334	      7.36507368	      1.87386703	      2.30929923	    -63.19631195	   -382.99371338
      0.20000000	   -288.66799927	     43.46889496	     -6.75350332	    117.90718079	     24.18735313	    -27.23203087	    -11.01901817	      6.16411114	     76.23791504	     40.64711761	     -4.04240704	    -13.15480995	      5.12006855	     -9.32086182	    -21.76680946	   -331.65631104
      0.21000000	    -40.93498993	     45.93348694	     -1.74206018	      0.33089650	      4.71513367	     -7.91214609	    -20.00836563	      1.83025706	     35.41106033	     -7.59939003	    -10.72446537	     -1.57129610	      4.88152361	    -20.11845589	     -0.04691336	   -312.66772461
      0.22000000	    246.14881897	     43.81558609	      6.05469465	   -208.96128845	    -45.76222229	     57.82990265	    -12.51890373	     -7.45515823	     16.68365288	    -54.47473526	     -8.10365295	     -1.82772410	     -0.72477472	     -7.39224386	     28.90504265	   -295.51992798
      0.23000000	   -218.22534180	     16.20025444	      4.91739130	   -397.24224854	   -150.58238220	    -52.50677490	    -11.71772480	     -4.88179588	    -11.31462955	    -11.97764778	     -6.69962502	     -9.26843929	     11.81308460	     -9.37092972	     33.21865082	    -95.14133453
      0.24000000	    -17.61208153	     -5.49007511	     -3.95204496	   -496.71572876	     -7.47980213	     44.84496307	     13.06502819	     -2.35571194	     18.18991280	    -17.40947533	      4.15425491	     -0.70535302	     -0.83069223	    -15.79675770	     37.76550293	     35.33569717
      0.25000000	    347.03247070	    -47.31169891	      2.85502601	   -336.55722046	     50.01119614	     17.07795143	     -5.33204222	     -1.08672261	     17.04302788	      7.24376917	     -3.57325602	      7.51414204	      0.52691519	    -16.71839142	     22.24954033	     64.71945953
      0.26000000	   -306.95269775	    -63.31430054	     -7.21866798	   -317.90731812	     31.79775238	     -4.02638912	      4.14296293	      3.73758292	     53.37713623	     27.36409187	     -1.57840252	    -10.70102692	      4.18349314	    -22.75811958	      7.85333347	     84.67706299
